<?xml version="1.0" encoding="UTF-8"?>
<svg version="1.1" xmlns="http://www.w3.org/2000/svg" width="2000" height="2000">
<path d="M0 0 C660 0 1320 0 2000 0 C2000 660 2000 1320 2000 2000 C1340 2000 680 2000 0 2000 C0 1340 0 680 0 0 Z " fill="#FFFEFE" transform="translate(0,0)"/>
<path d="M0 0 C0.68354931 -0.00044186 1.36709862 -0.00088371 2.07136154 -0.00133896 C22.37867866 -0.00820168 42.44128971 0.18633759 62.5625 3.25 C63.77405762 3.42692383 64.98561523 3.60384766 66.23388672 3.78613281 C98.22515811 8.55455761 129.45314324 16.9759578 158.5625 31.25 C159.77462158 31.84167969 159.77462158 31.84167969 161.01123047 32.4453125 C172.55392947 38.14200773 183.18020224 44.65527808 193.5625 52.25 C194.22878418 52.73227051 194.89506836 53.21454102 195.58154297 53.71142578 C205.31288171 60.77287843 214.57787422 68.26276008 223.5625 76.25 C224.54476562 77.12011719 225.52703125 77.99023438 226.5390625 78.88671875 C232.48014872 84.24330458 238.20570215 89.79564055 243.875 95.4375 C244.53290527 96.09073242 245.19081055 96.74396484 245.86865234 97.41699219 C250.30174832 101.86465229 254.47558619 106.48389627 258.5625 111.25 C259.45176099 112.27088728 260.34107892 113.29172496 261.23046875 114.3125 C294.61533226 153.23562769 321.51063743 198.64274965 346.75097656 243.06494141 C348.52099673 246.17702809 350.3031197 249.28195099 352.0859375 252.38671875 C364.57305507 274.26365905 376.45282872 296.73276047 385.5625 320.25 C385.86591309 321.02311523 386.16932617 321.79623047 386.48193359 322.59277344 C401.79847139 361.85488442 407.78581996 404.2551422 407.69287109 446.24658203 C407.68752116 449.11366086 407.69284421 451.9805822 407.69921875 454.84765625 C407.70552296 469.31074795 407.56536587 483.81410164 405.25 498.125 C405.12028809 498.95322266 404.99057617 499.78144531 404.85693359 500.63476562 C403.54344859 508.77806397 401.92505621 516.84563325 400.09521484 524.88769531 C399.74466975 526.44217486 399.40357747 527.99882141 399.07275391 529.55761719 C390.56594632 569.594632 370.40157746 609.25390716 346.5625 642.25 C345.88405029 643.19649414 345.88405029 643.19649414 345.19189453 644.16210938 C332.61037522 661.68780401 318.98704723 678.21329749 304.5625 694.25 C305.92516644 698.28805866 307.7034151 700.79368118 310.625 703.875 C314.65914254 708.23084449 318.4448767 712.71882419 322.1796875 717.33203125 C324.77006106 720.50417723 327.40943437 723.63034018 330.0625 726.75 C334.11284575 731.51892178 338.10602572 736.32912995 342.05859375 741.1796875 C349.87041948 750.75861889 357.72222837 760.30229952 365.72998047 769.71826172 C369.29278404 773.91328182 372.77575575 778.16914278 376.25 782.4375 C378.82396392 785.56799666 381.43819086 788.66172461 384.0625 791.75 C388.18351634 796.59959381 392.23241354 801.50160806 396.25 806.4375 C398.82396545 809.56799851 401.43826903 812.66165634 404.0625 815.75 C408.22494676 820.65064307 412.33221281 825.59131612 416.38671875 830.58203125 C417.83632798 832.35955926 419.29731144 834.12787208 420.76953125 835.88671875 C429.80028012 846.72045426 437.62794841 858.15406365 445.01953125 870.1484375 C447.51876319 874.1990161 450.09240534 878.19784736 452.6875 882.1875 C457.30417706 889.29136284 461.87639463 896.4228382 466.4375 903.5625 C473.42540306 914.49377042 480.47345066 925.38412945 487.5625 936.25 C488.94275908 938.36715442 490.32296489 940.48434356 491.703125 942.6015625 C495.32168696 948.15184431 498.94160807 953.70123798 502.5625 959.25 C500.12009326 961.69240674 499.04008757 961.66418361 495.6652832 962.1003418 C494.63412384 962.23802979 493.60296448 962.37571777 492.54055786 962.51757812 C490.84405594 962.73124023 490.84405594 962.73124023 489.11328125 962.94921875 C487.93410126 963.10495361 486.75492126 963.26068848 485.54000854 963.42114258 C482.32280783 963.84529547 479.10477883 964.26239282 475.88634872 964.67708969 C470.47428082 965.37779278 465.06504842 966.10030426 459.65553474 966.82041359 C458.28163502 967.00324801 456.90769646 967.1857908 455.53372002 967.36804771 C442.58455774 969.08665627 429.66408013 970.9731861 416.75 972.9375 C401.96201909 975.18090401 387.16603262 977.27295089 372.33065796 979.17758179 C360.87360059 980.6501415 349.45459481 982.29131317 338.04037476 984.0640564 C327.04609061 985.76766236 316.03444032 987.2687218 305 988.6875 C291.82752977 990.38144902 278.69086702 992.2429083 265.5625 994.25 C250.571349 996.54182286 235.56280984 998.61585238 220.5222168 1000.55541992 C211.33088516 1001.74224975 202.15555182 1002.98935425 193.00097656 1004.43823242 C190.14751305 1004.88702125 187.45730285 1005.25 184.5625 1005.25 C183.00708008 1003.41186523 183.00708008 1003.41186523 181.33203125 1000.80859375 C180.70184082 999.8436499 180.07165039 998.87870605 179.42236328 997.88452148 C178.40891846 996.30199585 178.40891846 996.30199585 177.375 994.6875 C175.9330813 992.47775712 174.4892568 990.26937391 173.04296875 988.0625 C172.67337036 987.49643539 172.30377197 986.93037079 171.92297363 986.34715271 C168.12643361 980.54669437 164.16853374 974.86259064 160.1875 969.1875 C155.59383436 962.6202757 151.03867368 956.03776405 146.61938477 949.35205078 C142.33977795 942.88713128 137.98140142 936.47578119 133.625 930.0625 C133.21810944 929.4634082 132.81121887 928.86431641 132.39199829 928.24707031 C130.71654413 925.78029341 129.04092867 923.31362625 127.36500549 920.84716797 C124.47724679 916.5972263 121.59139958 912.34599333 118.70703125 908.09375 C118.31191849 907.51126999 117.91680573 906.92878998 117.50971985 906.32865906 C116.71537126 905.15761411 115.92102413 903.98656817 115.12667847 902.81552124 C108.08365287 892.43308176 101.03253651 882.05617466 93.97607422 871.68286133 C88.26258514 863.28258509 82.55769168 854.87650124 76.85449219 846.46923828 C70.57577356 837.21384779 64.2900237 827.96326969 57.99853516 818.71655273 C54.1685989 813.08648364 50.343266 807.45333547 46.5234375 801.81640625 C45.66732169 800.55338272 44.81120191 799.29036187 43.95507812 798.02734375 C41.9437231 795.05994808 39.9335661 792.09174527 37.92521667 789.12231445 C36.82937595 787.50900291 35.72302812 785.90284422 34.61645508 784.296875 C33.27255159 782.30330368 31.97541569 780.27719354 30.7331543 778.21875 C28.01413427 773.45002429 28.01413427 773.45002429 23.61328125 770.56958008 C21.49704933 770.48832456 19.69941178 770.7097105 17.625 771.125 C16.94115234 771.2178125 16.25730469 771.310625 15.55273438 771.40625 C13.88197516 771.63992262 12.22050493 771.93845725 10.5625 772.25 C10.65748779 772.83861816 10.75247559 773.42723633 10.8503418 774.03369141 C13.08408551 787.97702455 15.07528711 801.93277275 16.875 815.9375 C18.75688566 830.5705606 20.8564687 845.1624349 23.0625 859.75 C25.31669378 874.66024072 27.44118828 889.57502964 29.35449219 904.53271484 C31.20620798 918.96810057 33.33881335 933.35494832 35.51547241 947.74453735 C37.84529807 963.16618554 39.99973165 978.60186055 41.96484375 994.07421875 C42.14950699 995.5221651 42.33439499 996.97008281 42.51953125 998.41796875 C42.60635162 999.09967133 42.693172 999.7813739 42.78262329 1000.48373413 C43.44174874 1005.56132334 44.26627925 1010.59665503 45.2019043 1015.63012695 C45.60110916 1018.53051109 45.62165175 1021.32586939 45.5625 1024.25 C39.08757203 1025.76436027 32.6419361 1026.91941885 26.06201172 1027.86645508 C25.05045013 1028.0147728 24.03888855 1028.16309052 22.99667358 1028.31590271 C19.66232975 1028.80383623 16.32729385 1029.28683927 12.9921875 1029.76953125 C10.63222395 1030.11321909 8.27229001 1030.45711032 5.91238403 1030.80119324 C0.95150856 1031.52371144 -4.00971258 1032.24379527 -8.97119141 1032.9621582 C-15.2075325 1033.86528961 -21.44299906 1034.77429813 -27.67822742 1035.68507576 C-51.76742039 1039.20138077 -75.85782729 1042.64296377 -100.01332092 1045.67378235 C-110.13266063 1046.94384399 -120.22620894 1048.3236025 -130.30187988 1049.90557861 C-145.81101249 1052.33569011 -161.34890478 1054.47779849 -176.91772461 1056.48510742 C-187.98329814 1057.91338023 -199.02870557 1059.44408753 -210.06542969 1061.08251953 C-211.11891602 1061.2370459 -212.17240234 1061.39157227 -213.2578125 1061.55078125 C-214.62317139 1061.75441284 -214.62317139 1061.75441284 -216.01611328 1061.9621582 C-218.4375 1062.25 -218.4375 1062.25 -222.4375 1062.25 C-224.36254883 1060.03564453 -224.36254883 1060.03564453 -226.39453125 1056.8828125 C-226.76985992 1056.30994003 -227.1451886 1055.73706757 -227.53189087 1055.14683533 C-228.3506954 1053.89362671 -229.16310564 1052.636223 -229.96994019 1051.37527466 C-231.27058936 1049.34282622 -232.5870124 1047.32147815 -233.90844727 1045.30249023 C-235.30887463 1043.1626955 -236.70835321 1041.02235042 -238.10307312 1038.87882996 C-242.79458771 1031.6720335 -247.60412307 1024.54766843 -252.43481445 1017.4336853 C-253.88060756 1015.30424087 -255.32439519 1013.17345046 -256.76757812 1011.04223633 C-259.65600682 1006.77710923 -262.54656966 1002.51343172 -265.4375 998.25 C-266.40463465 996.82357602 -267.37175706 995.39714374 -268.33886719 993.97070312 C-268.81438522 993.26933731 -269.28990326 992.5679715 -269.77983093 991.84535217 C-271.65716472 989.07616024 -273.53416034 986.30673915 -275.41116333 983.537323 C-277.09946929 981.04702265 -278.78897694 978.55753896 -280.47891235 976.06834412 C-281.27136691 974.89802942 -282.06150292 973.72614113 -282.84921265 972.55262756 C-284.92043515 969.46836271 -287.02501856 966.41604978 -289.1862793 963.39404297 C-294.19227198 956.31100605 -297.82760195 950.58080199 -298.625 941.75 C-298.89905393 939.58698681 -299.17529918 937.4242507 -299.453125 935.26171875 C-299.59943359 934.02728027 -299.74574219 932.7928418 -299.89648438 931.52099609 C-300.51134485 926.50516269 -301.28025457 921.51404922 -302.046875 916.51953125 C-302.34688117 914.56063419 -302.64684786 912.60173107 -302.94677734 910.64282227 C-303.09943054 909.64582306 -303.25208374 908.64882385 -303.40936279 907.62161255 C-305.89728623 891.27661756 -308.19349585 874.91214042 -310.29458618 858.51327515 C-312.08911348 844.52540805 -314.13356629 830.58245082 -316.29516602 816.64672852 C-317.61567063 808.08039541 -318.79821858 799.51068862 -319.84375 790.90625 C-321.40734802 778.08402269 -323.30417489 765.31752966 -325.22393799 752.54449463 C-326.23566934 745.80692832 -327.23760679 739.06792033 -328.234375 732.328125 C-328.33253635 731.66445545 -328.43069771 731.0007859 -328.53183365 730.31700516 C-330.15134469 719.34948945 -331.66193116 708.37240929 -333.0625 697.375 C-334.9626394 682.45772816 -337.14725151 667.59205254 -339.39505005 652.72341919 C-341.51765606 638.66505335 -343.48989162 624.59780305 -345.296875 610.49560547 C-346.95996379 597.54375448 -348.85016882 584.63556628 -350.82302856 571.72756958 C-352.79474117 558.80502998 -354.57492191 545.86805991 -356.23873901 532.90255737 C-357.83236438 520.51311449 -359.61566534 508.16090903 -361.5 495.8125 C-363.38298821 483.45129428 -365.1951563 471.08650883 -366.8125 458.6875 C-366.98015869 457.42172119 -367.14781738 456.15594238 -367.32055664 454.85180664 C-368.03299483 449.27788997 -368.652094 443.87071198 -368.4375 438.25 C-371.7375 438.58 -375.0375 438.91 -378.4375 439.25 C-379.36949219 437.88230469 -380.30148437 436.51460937 -381.26171875 435.10546875 C-389.10843269 423.59246324 -396.96489037 412.0862254 -404.8359375 400.58984375 C-406.47462194 398.19576576 -408.11243448 395.80109346 -409.75 393.40625 C-415.24787719 385.36647402 -420.75263904 377.33158 -426.27392578 369.30786133 C-428.7285853 365.73942333 -431.17925287 362.16830349 -433.625 358.59375 C-434.17003174 357.79767334 -434.71506348 357.00159668 -435.27661133 356.18139648 C-436.37845053 354.56839977 -437.47728015 352.95334283 -438.57299805 351.33618164 C-441.21413 347.4468462 -443.89266277 343.60616835 -446.70703125 339.83984375 C-447.22007812 339.13859375 -447.733125 338.43734375 -448.26171875 337.71484375 C-449.21764962 336.4126702 -450.19163474 335.12345564 -451.1875 333.8515625 C-457.69603512 324.88033842 -453.87696076 312.36121319 -452.58718872 302.06878662 C-452.12013081 298.33748047 -451.66748126 294.60446397 -451.213974 290.87149048 C-450.97619119 288.91452739 -450.73779095 286.95763923 -450.49879456 285.00082397 C-449.28457609 275.0476384 -448.13104819 265.08794489 -447 255.125 C-446.89927185 254.23936371 -446.7985437 253.35372742 -446.69476318 252.44125366 C-444.8507759 236.19756783 -443.10747302 219.94340171 -441.375 203.6875 C-439.25442089 183.7920043 -437.08352935 163.90542314 -434.7623291 144.0322876 C-434.38626336 140.81113827 -434.01097667 137.58989861 -433.63574219 134.36865234 C-432.42093642 123.94122093 -431.20570934 113.51384004 -429.98657227 103.08691406 C-429.84293747 101.85798431 -429.69930267 100.62905457 -429.55131531 99.36288452 C-429.26623805 96.92487997 -428.98085167 94.48691154 -428.69514465 92.04898071 C-427.98217024 85.95593419 -427.27827829 79.86204006 -426.59033203 73.76611328 C-426.4547438 72.57059341 -426.31915558 71.37507355 -426.17945862 70.14332581 C-425.92306348 67.87839463 -425.66882548 65.61321787 -425.417099 63.34776306 C-425.30274002 62.33976151 -425.18838104 61.33175995 -425.07055664 60.29321289 C-424.97198868 59.41226456 -424.87342072 58.53131622 -424.77186584 57.62367249 C-424.46438809 55.44087931 -424.01811105 53.37454579 -423.4375 51.25 C-404.10562409 48.10599085 -384.78530417 45.06580002 -365.34765625 42.6472168 C-357.4995263 41.66467408 -349.68596373 40.5552093 -341.875 39.3125 C-330.25910838 37.46676226 -318.6119252 35.93490713 -306.94842529 34.42852783 C-295.91555588 33.00115392 -284.91721615 31.44659926 -273.9296875 29.69921875 C-264.95486356 28.28872678 -255.95293593 27.13242185 -246.9397583 25.99871826 C-238.22783737 24.90028536 -229.54677541 23.69159914 -220.875 22.3125 C-209.26144961 20.46721961 -197.61667547 18.93516336 -185.95547485 17.42953491 C-174.759682 15.981592 -163.59894048 14.39961537 -152.44848633 12.63110352 C-144.48116777 11.3788865 -136.50007526 10.32214744 -128.49072266 9.37646484 C-123.93055165 8.83285171 -119.38173177 8.24905847 -114.84008789 7.56738281 C-102.72045562 5.75450667 -90.61974914 4.39347829 -78.40844727 3.36962891 C-75.5039876 3.1253354 -72.6006543 2.8699587 -69.69726562 2.61328125 C-46.4647549 0.59526814 -23.31671329 0.00694466 0 0 Z " fill="#FFFEFE" transform="translate(597.4375,435.75)"/>
<path d="M0 0 C8.41599869 1.67689168 16.53358677 4.23205968 24.71484375 6.78515625 C26.29473437 7.27512374 27.87473941 7.76472245 29.45484924 8.25398254 C32.84418675 9.30405051 36.23288856 10.35613529 39.62109375 11.40985107 C48.70177918 14.23359895 57.78656194 17.0441256 66.87109375 19.85546875 C67.80986233 20.14610954 68.74863091 20.43675034 69.71584702 20.73619843 C84.22878686 25.2287071 98.75237563 29.6853868 113.28515625 34.11328125 C114.22587416 34.39990442 115.16659206 34.6865276 116.13581657 34.98183632 C125.27152077 37.76473275 134.40846582 40.54354171 143.54605007 43.32025814 C146.91667702 44.34472299 150.28705089 45.37001884 153.6573925 46.39542198 C155.95363902 47.09359007 158.2503082 47.79035381 160.54701233 48.48701477 C167.39624777 50.56828966 174.22415927 52.68816477 181 55 C179.04022534 61.13874348 176.81374216 67.10094078 174.32421875 73.04296875 C173.96675568 73.90392151 173.6092926 74.76487427 173.24099731 75.6519165 C172.4659428 77.51821877 171.68957196 79.38397482 170.91201782 81.24923706 C168.7751689 86.37666263 166.64946295 91.50870419 164.5234375 96.640625 C164.07521133 97.7221434 163.62698517 98.8036618 163.16517639 99.91795349 C157.99600501 112.4034306 152.90315235 124.9198531 147.8125 137.4375 C145.94946463 142.01702715 144.08615669 146.59644333 142.22265625 151.17578125 C141.77371506 152.27906265 141.32477386 153.38234406 140.86222839 154.51905823 C136.84219238 164.39485218 132.80109301 174.26191141 128.75 184.125 C128.11905568 185.66137549 127.48811491 187.19775244 126.85717773 188.73413086 C126.54483688 189.49469284 126.23249603 190.25525482 125.91069031 191.03886414 C125.59727188 191.8020546 125.28385345 192.56524506 124.9609375 193.3515625 C124.49050774 194.49701286 124.49050774 194.49701286 124.01057434 195.66560364 C120.18912482 204.97206766 116.37589062 214.28189432 112.56506348 223.5927124 C111.78624006 225.49535349 111.00719604 227.39790429 110.22790527 229.300354 C109.49261105 231.09546474 108.7576185 232.89069908 108.02294922 234.68606567 C107.32411405 236.39377383 106.62458852 238.10119967 105.92431641 239.80831909 C104.3238362 243.71879921 102.74422022 247.63495122 101.21582031 251.57421875 C100.94130035 252.27768433 100.6667804 252.9811499 100.38394165 253.70593262 C99.65459972 255.5823018 98.93365686 257.46192969 98.21337891 259.34179688 C97 262 97 262 95 263 C92.63110352 261.95874023 92.63110352 261.95874023 89.62890625 260.30859375 C87.95296387 259.3969043 87.95296387 259.3969043 86.24316406 258.46679688 C85.64475708 258.13671631 85.0463501 257.80663574 84.42980957 257.46655273 C81.89302018 256.0685574 79.34563882 254.6904216 76.7986145 253.31118774 C75.47840636 252.59616805 74.1586488 251.88031581 72.83932495 251.16366577 C21.11115803 223.07039292 -36.97649749 192.66886476 -97 191 C-98.0199707 190.96712891 -98.0199707 190.96712891 -99.06054688 190.93359375 C-129.22151797 190.07103023 -157.12581151 195.30020615 -180.25 216.015625 C-184.58746095 220.4547452 -187.50884762 225.39085475 -190.3125 230.875 C-190.80121582 231.82838257 -190.80121582 231.82838257 -191.29980469 232.80102539 C-195.98324562 242.48834038 -197.49316503 251.79949987 -197.375 262.5 C-197.39240234 264.07587891 -197.39240234 264.07587891 -197.41015625 265.68359375 C-197.35378389 280.88533925 -192.12187979 292.32799928 -181.796875 303.36328125 C-171.73056012 312.85317307 -159.99178236 320.21311008 -148 327 C-147.0399707 327.55107422 -147.0399707 327.55107422 -146.06054688 328.11328125 C-125.06853337 340.15008111 -103.3335463 350.88979407 -81.65234375 361.6171875 C-79.95076694 362.46029949 -78.2492496 363.30353152 -76.54779053 364.1468811 C-66.12880317 369.31024543 -66.12880317 369.31024543 -55.69897461 374.45166016 C19.02560365 411.20618979 91.31926059 461.07321127 119.5625 543.3984375 C123.37931608 555.31209158 125.7377674 567.71524561 128 580 C128.13567383 580.72558105 128.27134766 581.45116211 128.41113281 582.19873047 C135.23905569 620.67551841 129.69769293 666.52042169 116.73339844 702.93847656 C115.87715172 705.34531654 115.05380778 707.76273065 114.2265625 710.1796875 C101.95922307 745.46683776 82.75863164 775.9546282 57 803 C56.42975098 803.59893066 55.85950195 804.19786133 55.27197266 804.81494141 C46.74014414 813.70943575 37.91752556 821.68876726 28 829 C27.45585449 829.41024414 26.91170898 829.82048828 26.35107422 830.24316406 C11.36267267 841.54149361 -4.95093711 851.16188987 -22 859 C-22.76296387 859.35126953 -23.52592773 859.70253906 -24.31201172 860.06445312 C-54.89724751 873.97966171 -85.89043206 882.0768951 -119 887 C-120.18770996 887.19053955 -121.37541992 887.3810791 -122.59912109 887.57739258 C-135.07669234 889.39828993 -147.53538956 889.35363662 -160.125 889.3125 C-161.27784485 889.31067719 -162.4306897 889.30885437 -163.61846924 889.30697632 C-181.60271662 889.25911851 -199.18498821 888.62319594 -217 886 C-218.76053711 885.75056641 -218.76053711 885.75056641 -220.55664062 885.49609375 C-235.8229741 883.2883219 -250.88598658 880.27844172 -265.9375 876.9375 C-266.68404846 876.77182526 -267.43059692 876.60615051 -268.19976807 876.43545532 C-341.44030098 860.08044874 -416.77735622 832.02797941 -478 788 C-478.57443848 787.58782227 -479.14887695 787.17564453 -479.74072266 786.75097656 C-482.84194038 784.52054411 -485.92846499 782.27111381 -489 780 C-488.37946506 775.10931111 -486.92401091 770.78872257 -485.10546875 766.23828125 C-484.65704872 765.09546692 -484.65704872 765.09546692 -484.1995697 763.92956543 C-483.20098068 761.38836701 -482.19418107 758.85050249 -481.1875 756.3125 C-480.47126075 754.49396272 -479.75561757 752.67519058 -479.04052734 750.85620117 C-477.50398307 746.94988141 -475.96427968 743.04482728 -474.42236328 739.140625 C-471.97919047 732.95159975 -469.54858985 726.75768833 -467.12109375 720.5625 C-466.71261703 719.52006638 -466.30414032 718.47763275 -465.88328552 717.40361023 C-465.05087662 715.27920561 -464.21849456 713.15479048 -463.38613892 711.03036499 C-461.68731184 706.6957147 -459.98678205 702.3617333 -458.28623962 698.02775574 C-453.1830076 685.02155834 -448.08925369 672.01167244 -443 659 C-433.34942543 634.32702317 -423.67580211 609.66309256 -414 585 C-410.12606312 586.87443159 -406.61901004 589.18138645 -403.05859375 591.5859375 C-401.66597431 592.52024201 -400.27331319 593.45448441 -398.88061523 594.38867188 C-397.7923494 595.12041626 -397.7923494 595.12041626 -396.68209839 595.86694336 C-336.29728153 636.43710705 -266.3676039 680.18828458 -191.125 680.25 C-190.0200116 680.25101212 -190.0200116 680.25101212 -188.8927002 680.25204468 C-172.57501395 680.22829226 -158.04873941 678.8527248 -143 672 C-141.97261719 671.54625 -140.94523437 671.0925 -139.88671875 670.625 C-121.43072562 661.99500575 -109.92197593 647.75778369 -102.87109375 628.99609375 C-97.46975521 611.90490174 -98.10902898 591.02203042 -105.6875 574.75 C-108.8358499 568.92400937 -112.58205924 563.91910332 -117 559 C-117.79019531 558.11570312 -118.58039063 557.23140625 -119.39453125 556.3203125 C-126.74933495 548.5354678 -134.98928861 542.70938225 -144 537 C-144.97767334 536.37593262 -144.97767334 536.37593262 -145.97509766 535.73925781 C-163.43255329 524.71855616 -182.44114912 516.48922132 -201.33520508 508.28540039 C-213.25511133 503.075369 -224.93971088 497.39070208 -236.61572266 491.66064453 C-239.71323763 490.14071257 -242.81527441 488.6304126 -245.91796875 487.12109375 C-264.06514394 478.23572163 -281.5196189 468.22729466 -298.75 457.6875 C-299.80864258 457.04208252 -300.86728516 456.39666504 -301.95800781 455.73168945 C-308.88175682 451.45606102 -315.46428548 446.84332632 -322 442 C-323.21156093 441.13470786 -324.4259231 440.2733076 -325.64453125 439.41796875 C-336.84762804 431.53021503 -347.70476436 423.31306029 -357.79296875 414.0234375 C-359.72130517 412.25551137 -361.68847978 410.56153954 -363.6875 408.875 C-374.48538515 399.41045694 -384.27541999 389.12176204 -392.82275391 377.58740234 C-393.91339356 376.1167804 -395.02423161 374.66119635 -396.13671875 373.20703125 C-413.46934505 350.1536167 -425.17596789 323.17412489 -431 295 C-431.20238281 294.09121094 -431.40476562 293.18242188 -431.61328125 292.24609375 C-434.41103547 279.28245398 -435.3809171 266.46968426 -435.3125 253.25 C-435.31034485 252.49298798 -435.3081897 251.73597595 -435.30596924 250.95602417 C-435.01255056 186.11982492 -413.02794288 124.06327079 -368 77 C-367.48099121 76.44844238 -366.96198242 75.89688477 -366.42724609 75.32861328 C-357.39262185 65.75952366 -347.67796959 57.67471056 -337 50 C-336.11852295 49.351521 -336.11852295 49.351521 -335.21923828 48.68994141 C-310.90667293 30.89080325 -282.71738136 19.62524357 -253.61425781 12.63623047 C-251.28333152 12.06895423 -248.96570932 11.46787042 -246.6484375 10.84765625 C-235.26688614 7.87374056 -223.72869587 6.56937612 -212.046875 5.32543945 C-210.3482001 5.14400246 -208.65001959 4.95683596 -206.95452881 4.74772644 C-201.62816917 4.10648632 -196.37851997 3.81408683 -191.015625 3.76171875 C-190.17482391 3.75187958 -189.33402283 3.74204041 -188.46774292 3.73190308 C-133.47533796 3.22399039 -81.82821269 13.3430159 -29.89659119 31.02372742 C-24.6335482 32.80708476 -19.34420314 34.47461526 -14 36 C-13.8956665 35.32493408 -13.79133301 34.64986816 -13.68383789 33.9543457 C-12.85403296 30.36938695 -11.50115725 27.10068235 -10.05859375 23.73046875 C-9.77146011 23.04946609 -9.48432648 22.36846344 -9.18849182 21.66682434 C-8.27587966 19.5051638 -7.3567987 17.34632419 -6.4375 15.1875 C-5.81532525 13.71697872 -5.1935758 12.24627741 -4.57226562 10.77539062 C-3.05309327 7.18149081 -1.52811577 3.59010569 0 0 Z " fill="#FFFEFE" transform="translate(1570,440)"/>
<path d="M0 0 C5.0125423 0.59967196 9.66440276 1.66499985 14.47973633 3.1953125 C15.19937057 3.41918577 15.91900482 3.64305904 16.66044617 3.87371635 C19.05255792 4.61917537 21.44223516 5.37215373 23.83203125 6.125 C25.54741567 6.66086189 27.26297083 7.19617749 28.97868347 7.73098755 C32.660916 8.8796971 36.34217724 10.0314482 40.02270508 11.18560791 C48.87935735 13.96244384 57.74127275 16.72240266 66.60317612 19.48242569 C68.63929495 20.11659616 70.67535865 20.75094364 72.71136856 21.38546371 C93.25892729 27.78827939 113.83831525 34.08391668 134.42987823 40.34354782 C138.69036132 41.63895874 142.95040868 42.93580063 147.21044922 44.23266602 C148.4555854 44.61171129 148.4555854 44.61171129 149.72587585 44.99841404 C151.38465555 45.503396 153.04343091 46.00839219 154.70220184 46.51340294 C156.33285488 47.00984968 157.96351581 47.50627048 159.59418488 48.00266457 C174.67694159 52.59415645 189.75772636 57.19192794 204.8269043 61.82781982 C207.20689475 62.55928589 209.58741746 63.28902268 211.96850586 64.01690674 C215.16665879 64.99488813 218.36287541 65.97894118 221.55859375 66.96484375 C222.94890053 67.38791557 222.94890053 67.38791557 224.36729431 67.8195343 C225.20700272 68.08010117 226.04671112 68.34066803 226.91186523 68.60913086 C227.6349437 68.83128769 228.35802216 69.05344452 229.10301208 69.28233337 C231 70 231 70 234 72 C235.02544285 74.42189422 235.88462208 76.76047012 236.6887207 79.25561523 C236.94000575 80.00689288 237.1912908 80.75817053 237.45019054 81.53221416 C238.28541801 84.0377991 239.10554889 86.54806386 239.92578125 89.05859375 C240.51102206 90.82410032 241.09717998 92.58930311 241.6842041 94.35421753 C243.25023232 99.07166736 244.80316444 103.79332696 246.35290909 108.51614761 C247.94441338 113.36127985 249.54543777 118.20326488 251.14526367 123.0456543 C253.34506403 129.70752189 255.54026865 136.37087488 257.73030567 143.03595829 C260.78629899 152.33514276 263.87623425 161.62181158 267 170.8984375 C267.97979648 173.82788457 268.95774979 176.75793428 269.93417358 179.68850708 C270.5148439 181.42325487 271.10023674 183.15642978 271.69058228 184.88790894 C272.48064357 187.20871936 273.2524732 189.53478695 274.01953125 191.86328125 C274.43307861 193.09344971 274.84662598 194.32361816 275.27270508 195.59106445 C276.81152006 202.80371084 274.16036442 208.69349113 271.43359375 215.24609375 C270.86900703 216.63136261 270.86900703 216.63136261 270.29301453 218.0446167 C269.46052999 220.0851881 268.6245067 222.1243184 267.78546143 224.16220093 C265.63776372 229.38071251 263.51315269 234.60860832 261.38622284 239.83561134 C260.59972018 241.76768833 259.81227053 243.69937747 259.02471924 245.63102722 C252.97911202 260.46800511 247.04417109 275.34909846 241.10467529 290.22879028 C237.71499035 298.72024389 234.32078946 307.2098923 230.92578125 315.69921875 C230.57436066 316.57798109 230.22294006 317.45674343 229.86087036 318.36213493 C220.79570414 341.02776689 211.69401226 363.67872189 202.58779144 386.32788467 C201.33172136 389.45218946 200.07589317 392.57659138 198.82012939 395.70101929 C189.25990262 419.48633701 179.6734142 443.26046085 170 467 C165.7950362 465.3981935 162.30587088 463.30558331 158.625 460.75 C121.74348204 435.70120567 81.80908348 412.69699073 40 397 C39.16098145 396.67676758 38.32196289 396.35353516 37.45751953 396.02050781 C19.67209671 389.25120278 1.2268107 385.51884207 -17.36328125 381.6875 C-18.1903508 381.51604965 -19.01742035 381.3445993 -19.86955261 381.16795349 C-22.96235552 380.54180221 -25.83573332 380 -29 380 C-27.99308105 380.54805298 -27.99308105 380.54805298 -26.96582031 381.10717773 C-10.05655989 390.33807852 6.51463868 400.00908715 22.91796875 410.109375 C25.63442776 411.7757453 28.35992218 413.42484469 31.09375 415.0625 C46.30201094 424.18972621 60.98917119 434.11658833 75 445 C75.845625 445.65226562 76.69125 446.30453125 77.5625 446.9765625 C83.06400026 451.29180177 88.25655723 455.88086398 93.3984375 460.6171875 C95.65155544 462.68085409 97.93488353 464.69417578 100.25 466.6875 C107.65536293 473.16155968 113.92714634 480.26607627 120 488 C120.45004395 488.56831543 120.90008789 489.13663086 121.36376953 489.72216797 C135.83510054 508.10090748 147.17233384 528.32175628 158 549 C158.69923584 550.32257813 158.69923584 550.32257813 159.41259766 551.671875 C181.72350624 594.06179847 197.30332233 640.14197461 207 687 C207.20866699 688.0012793 207.41733398 689.00255859 207.63232422 690.03417969 C211.33183642 708.07525281 213.6807638 726.19649406 215.62353516 744.49487305 C215.84093766 746.51902848 216.06893445 748.54222581 216.32568359 750.56176758 C217.27246974 758.36646927 217.15030743 766.206358 217.13037109 774.0559082 C217.12506369 776.53277866 217.13031413 779.00946356 217.13671875 781.48632812 C217.1434167 795.1034395 216.95790499 808.83701232 214.8125 822.3125 C214.68431885 823.12404541 214.5561377 823.93559082 214.42407227 824.77172852 C213.97236079 827.51902288 213.49209492 830.25965221 213 833 C212.8134082 834.0405957 212.62681641 835.08119141 212.43457031 836.15332031 C207.67679108 861.89373798 199.58707457 886.51897404 188 910 C187.61376465 910.79019531 187.2275293 911.58039062 186.82958984 912.39453125 C180.81808568 924.57994615 173.83770302 935.90828751 166 947 C165.5992627 947.56799316 165.19852539 948.13598633 164.78564453 948.72119141 C150.15275804 969.25801909 132.13202744 988.98345675 111.66699219 1003.78613281 C109.9057196 1005.06865292 108.17503487 1006.3862233 106.4453125 1007.7109375 C74.19170518 1032.20615179 37.3015773 1046.89515783 -1 1059 C-1.92039062 1059.29277832 -2.84078125 1059.58555664 -3.7890625 1059.88720703 C-17.57448192 1064.20652471 -31.75895602 1066.6989471 -46 1069 C-47.18335938 1069.20044922 -48.36671875 1069.40089844 -49.5859375 1069.60742188 C-101.08797931 1078.05264916 -154.03679457 1073.53013256 -205 1064 C-206.54929199 1063.71141113 -206.54929199 1063.71141113 -208.12988281 1063.41699219 C-213.77035574 1062.35452637 -219.3900875 1061.21314213 -225 1060 C-225.87865723 1059.81083008 -226.75731445 1059.62166016 -227.66259766 1059.42675781 C-240.23412438 1056.69849708 -252.66645266 1053.65656602 -265 1050 C-266.55170898 1049.54415527 -266.55170898 1049.54415527 -268.13476562 1049.07910156 C-323.8319485 1032.61224698 -377.27306085 1007.42400663 -427.12109375 977.71142578 C-429.97958731 976.01213475 -432.84738035 974.32977112 -435.71875 972.65234375 C-437.58342464 971.56005169 -439.44801153 970.46760982 -441.3125 969.375 C-442.11018799 968.90956787 -442.90787598 968.44413574 -443.72973633 967.96459961 C-445.42446605 966.96609781 -447.10793982 965.94833714 -448.78198242 964.91552734 C-451.38165829 963.36806836 -453.98980569 961.94805018 -456.6652832 960.54150391 C-465.92895112 955.4760824 -472.49572858 951.29895415 -475.68856812 940.94346619 C-476.12439243 939.35743057 -476.53845598 937.76528931 -476.93301392 936.16848755 C-477.83137433 932.53859231 -478.89278617 928.96077812 -479.93974304 925.37141418 C-480.5450807 923.28975174 -481.14200674 921.2056291 -481.73152161 919.11943054 C-484.72067608 908.6316928 -488.14008248 898.30184951 -491.609375 887.96484375 C-491.90326048 887.08893585 -492.19714596 886.21302795 -492.49993706 885.31057739 C-493.99801245 880.8494921 -495.499904 876.38970358 -497.00387573 871.93060303 C-499.65146007 864.07820077 -502.27757904 856.21864051 -504.90013885 848.35785103 C-505.69182202 845.98695416 -506.48579353 843.61683324 -507.28009033 841.24681091 C-507.76078023 839.80852851 -508.24139569 838.37022122 -508.72192383 836.93188477 C-509.13936356 835.6848024 -509.55680328 834.43772003 -509.9868927 833.15284729 C-510.32121811 832.11240768 -510.65554352 831.07196808 -511 830 C-511.21319822 829.35895986 -511.42639645 828.71791971 -511.64605522 828.05745411 C-512.08096158 825.52937648 -511.63583396 824.29393592 -510.67622375 821.92788696 C-510.35631564 821.1233886 -510.03640753 820.31889023 -509.70680523 819.49001312 C-509.34505609 818.61368477 -508.98330694 817.73735641 -508.6105957 816.83447266 C-508.23576207 815.90131477 -507.86092844 814.96815689 -507.47473621 814.0067215 C-506.21897551 810.88812331 -504.94736227 807.77624002 -503.67578125 804.6640625 C-502.78527901 802.46125252 -501.89580323 800.25802734 -501.0072937 798.05441284 C-499.10980221 793.35435719 -497.2054247 788.65717578 -495.29550171 783.9621582 C-492.30837812 776.61908925 -489.33601661 769.27010744 -486.36645508 761.91992188 C-482.89981288 753.34172038 -479.43006738 744.76479035 -475.95577145 736.18968582 C-468.59211143 718.01303855 -461.29382201 699.81071585 -454.0243187 681.59624481 C-452.68621561 678.24427423 -451.34666704 674.89288169 -450.00708008 671.54150391 C-448.02268606 666.57666746 -446.03872052 661.61166021 -444.05517578 656.64648438 C-425.36514071 609.86443059 -425.36514071 609.86443059 -419.64501953 595.71630859 C-419.02543491 594.18205077 -418.40737166 592.64717801 -417.79052734 591.11181641 C-416.85835496 588.79198367 -415.92188924 586.47392816 -414.984375 584.15625 C-414.71050964 583.47220093 -414.43664429 582.78815186 -414.15447998 582.08337402 C-412.96354364 579.15208447 -411.76361398 576.64542097 -410 574 C-407.22121713 575.32770924 -404.69353891 576.80359341 -402.15625 578.546875 C-401.04612549 579.30762329 -401.04612549 579.30762329 -399.91357422 580.08374023 C-399.11709473 580.63360596 -398.32061523 581.18347168 -397.5 581.75 C-396.65324707 582.33144775 -395.80649414 582.91289551 -394.93408203 583.51196289 C-390.75972139 586.38438846 -386.59911352 589.27489559 -382.4609375 592.19921875 C-285.1409793 663.30322747 -285.1409793 663.30322747 -170 685 C-167.56597402 684.48872633 -165.35557097 683.81664132 -163 683 C-163.72251953 682.72438232 -164.44503906 682.44876465 -165.18945312 682.16479492 C-186.95760095 673.8264117 -208.27458686 664.71532119 -229.00878906 654.02441406 C-230.39628486 653.31059205 -231.78647918 652.60200135 -233.17871094 651.89746094 C-276.78555814 629.82347709 -322.19189522 598.3767569 -352 559 C-352.47228027 558.37706055 -352.94456055 557.75412109 -353.43115234 557.11230469 C-362.39211662 545.21142115 -370.42314962 532.82124314 -378 520 C-378.69923584 518.82244141 -378.69923584 518.82244141 -379.41259766 517.62109375 C-398.77519149 484.67890461 -411.59626075 448.19119182 -423.9375 412.1875 C-424.24887909 411.28222565 -424.56025818 410.37695129 -424.881073 409.44424438 C-430.97961807 391.65990809 -436.55100287 373.77753362 -440.1875 355.3125 C-440.4359668 354.07338867 -440.68443359 352.83427734 -440.94042969 351.55761719 C-441.63905203 348.04063662 -442.32244011 344.5210899 -443 341 C-443.17160645 340.12714355 -443.34321289 339.25428711 -443.52001953 338.35498047 C-450.56717873 302.11570547 -451.02280291 262.23993761 -444 226 C-443.71116943 224.49638916 -443.71116943 224.49638916 -443.41650391 222.96240234 C-440.85392972 210.02536323 -437.27378432 197.4687305 -433 185 C-432.7829541 184.34966797 -432.5659082 183.69933594 -432.34228516 183.02929688 C-423.37888892 156.38024489 -409.32956035 132.01255741 -392 110 C-391.24074219 109.02675781 -390.48148438 108.05351563 -389.69921875 107.05078125 C-381.34633443 96.5905879 -372.30611834 86.56087548 -362 78 C-360.98601926 77.10411617 -359.97452911 76.20540957 -358.96484375 75.3046875 C-350.45628356 67.76646628 -341.54811696 61.16307026 -332 55 C-331.4013916 54.61247559 -330.8027832 54.22495117 -330.18603516 53.82568359 C-296.33706289 32.16421923 -257.505246 19.39490644 -217.9125824 13.43885803 C-216.06738093 13.16082934 -214.22284811 12.87829442 -212.37928772 12.58958435 C-196.72469417 10.16051815 -181.38932056 9.51460765 -165.5625 9.625 C-164.38367249 9.62932037 -163.20484497 9.63364075 -161.99029541 9.63809204 C-143.17351436 9.71872039 -124.64742591 10.32660053 -106 13 C-104.31003906 13.24145752 -104.31003906 13.24145752 -102.5859375 13.48779297 C-75.68962538 17.51064655 -48.77759143 24.07197074 -22.74609375 31.90625 C-19.82632541 32.75873711 -16.99209656 33.47860496 -14 34 C-10.31776572 27.04849229 -7.52933132 19.85230087 -4.75 12.5 C-4.29109375 11.29601562 -3.8321875 10.09203125 -3.359375 8.8515625 C-2.2358929 5.90242199 -1.11621059 2.95189863 0 0 Z M15 32 C12.99928999 36.64184486 11.00566081 41.28664138 9.01855469 45.93432617 C8.34146155 47.51523802 7.66243524 49.09532335 6.98144531 50.67456055 C6.00337395 52.94365758 5.03227574 55.21562865 4.0625 57.48828125 C3.75626709 58.19463211 3.45003418 58.90098297 3.13452148 59.6287384 C1.88021436 62.58430547 1 64.75435304 1 68 C-0.21357178 67.60208252 -1.42714355 67.20416504 -2.67749023 66.79418945 C-7.26339838 65.2912804 -11.85041634 63.79178253 -16.43774414 62.29321289 C-18.40744037 61.64925832 -20.37685102 61.00442945 -22.34594727 60.35864258 C-28.88909373 58.21315736 -35.43903664 56.09039939 -42 54 C-42.75794861 53.75772675 -43.51589722 53.51545349 -44.29681396 53.26583862 C-56.27840655 49.47253817 -68.4174413 46.82270071 -80.75 44.4375 C-81.75132965 44.24334503 -82.7526593 44.04919006 -83.78433228 43.84915161 C-131.57447333 34.66522895 -181.96735013 30.8585651 -229.72705078 42.44970703 C-232.11434799 43.02768425 -234.50762097 43.57476379 -236.90234375 44.12109375 C-278.31022223 53.78454264 -316.29284163 73.51468723 -347 103 C-347.56364258 103.53641113 -348.12728516 104.07282227 -348.70800781 104.62548828 C-357.30923547 112.84913582 -364.92601964 121.43752314 -372 131 C-372.64146973 131.85029785 -372.64146973 131.85029785 -373.29589844 132.71777344 C-380.0649866 141.70052252 -385.72560983 151.07457865 -391 161 C-391.34272949 161.63099609 -391.68545898 162.26199219 -392.03857422 162.91210938 C-418.20342125 211.25883486 -427.25781506 273.2644525 -416 327 C-415.71873507 328.48803291 -415.43868904 329.97629701 -415.16015625 331.46484375 C-410.01840697 357.30729995 -397.88489609 383.06466626 -382 404 C-381.22269531 405.05960938 -380.44539063 406.11921875 -379.64453125 407.2109375 C-373.63340108 415.31818866 -367.00111858 422.73990046 -360 430 C-359.46439453 430.55751953 -358.92878906 431.11503906 -358.37695312 431.68945312 C-352.13223106 438.15693579 -345.77796946 444.25129501 -338.71875 449.83984375 C-335.89954419 452.07981618 -333.17312201 454.40893886 -330.4375 456.75 C-322.61554206 463.275053 -314.33896015 469.15801662 -306 475 C-305.39913574 475.42216797 -304.79827148 475.84433594 -304.17919922 476.27929688 C-282.86813451 491.14201796 -260.0736441 504.1141836 -237 516 C-236.35613342 516.33171204 -235.71226685 516.66342407 -235.04888916 517.00518799 C-214.97498375 527.3265447 -194.67650262 536.94844272 -174 546 C-102.02271877 577.56020789 -102.02271877 577.56020789 -88.58984375 611.5703125 C-82.07867001 632.06067287 -83.38551888 653.92868604 -92.99707031 673.1328125 C-95.50869122 677.80878054 -98.5951014 681.94557255 -102 686 C-102.77730469 686.94552734 -102.77730469 686.94552734 -103.5703125 687.91015625 C-112.09581804 697.31391738 -124.14644913 703.11535185 -136 707 C-136.85078125 707.29519531 -137.7015625 707.59039063 -138.578125 707.89453125 C-150.50563409 711.79982858 -162.73440797 712.37753339 -175.1875 712.3125 C-176.27824326 712.30976578 -176.27824326 712.30976578 -177.39102173 712.30697632 C-187.74152538 712.26336325 -197.753296 711.82471676 -207.86816406 709.48291016 C-210.17207981 708.96101994 -212.48413752 708.51603165 -214.8046875 708.07421875 C-240.81999248 702.89823139 -266.11972725 693.3952492 -290 682 C-290.99257812 681.52981445 -291.98515625 681.05962891 -293.0078125 680.57519531 C-308.48962715 673.1893296 -323.3171793 664.855163 -338 656 C-339.04945801 655.37077637 -340.09891602 654.74155273 -341.18017578 654.09326172 C-359.73470651 642.94371378 -378.42694983 631.45041711 -395.45458984 618.03564453 C-396.96684902 616.8144342 -396.96684902 616.8144342 -399 617 C-408.31284212 640.73792731 -417.62498694 664.47611977 -426.91390991 688.22341919 C-433.20211736 704.29917231 -439.49315417 720.37381584 -445.79238892 736.44525146 C-447.05062 739.65717358 -448.30704688 742.86979694 -449.56323242 746.08251953 C-453.68380095 756.61126042 -457.84349158 767.12204768 -462.078125 777.60546875 C-463.27435789 780.58017918 -464.4696949 783.55524804 -465.6647644 786.53042603 C-466.78742083 789.31284322 -467.9238799 792.08935063 -469.06079102 794.8659668 C-469.73524235 796.54317387 -470.40902888 798.22064849 -471.08203125 799.8984375 C-471.395495 800.65114426 -471.70895874 801.40385101 -472.03192139 802.17936707 C-473.59305856 806.11752508 -474.67763304 808.97826465 -473 813 C-471.43491092 814.71764598 -471.43491092 814.71764598 -469.3359375 816.05859375 C-468.16562988 816.87372437 -468.16562988 816.87372437 -466.97167969 817.70532227 C-465.68632324 818.56275024 -465.68632324 818.56275024 -464.375 819.4375 C-463.03550293 820.3500354 -463.03550293 820.3500354 -461.66894531 821.28100586 C-416.59652497 851.65606764 -367.33836689 873.68958785 -316 891 C-315.02047363 891.33112793 -314.04094727 891.66225586 -313.03173828 892.00341797 C-301.03764612 896.02104318 -288.85537224 899.24877551 -276.59472656 902.34472656 C-274.36105158 902.90881987 -272.12936832 903.47986705 -269.8984375 904.0546875 C-266.70293536 904.86869962 -263.50398479 905.66479846 -260.29931641 906.44189453 C-258.62374987 906.84859926 -256.94906022 907.25892173 -255.27490234 907.67138672 C-237.64784284 911.9922821 -219.96405389 915.40943904 -202 918 C-200.31052246 918.24991699 -200.31052246 918.24991699 -198.58691406 918.50488281 C-160.78967398 923.86013859 -121.49093805 922.94705136 -84 916 C-82.16543115 915.68580901 -80.33080442 915.37195553 -78.49609375 915.05859375 C-25.62579429 905.45858845 26.3496167 879.25506261 65 842 C65.60521484 841.41669922 66.21042969 840.83339844 66.83398438 840.23242188 C74.75179907 832.55478356 82.31475011 824.79701655 89 816 C89.41668945 815.45972168 89.83337891 814.91944336 90.26269531 814.36279297 C97.94567154 804.36819917 104.69114563 793.90906069 111 783 C111.39960937 782.31212402 111.79921875 781.62424805 112.2109375 780.91552734 C119.15538667 768.81226128 124.16005968 756.06260965 129 743 C129.34393799 742.09886475 129.68787598 741.19772949 130.04223633 740.26928711 C132.50874364 733.70970142 134.40855656 727.11973059 136.0625 720.3125 C136.32071533 719.25434082 136.57893066 718.19618164 136.8449707 717.10595703 C137.57594351 714.07344826 138.29221031 711.03799417 139 708 C139.16918945 707.28215332 139.33837891 706.56430664 139.51269531 705.82470703 C153.27985597 645.89249636 144.43189474 580.41872116 112 528 C86.50770293 488.48607187 50.14076913 457.91926562 10.14173889 433.88771057 C8.52863821 432.91848069 6.91583164 431.94871733 5.30874825 430.9695425 C-6.90786275 423.53360272 -19.5101184 417.06344408 -32.32421875 410.7265625 C-34.44472875 409.67166679 -36.56490517 408.61610029 -38.68476868 407.55990601 C-44.22532486 404.80091805 -49.76910977 402.04849212 -55.31402588 399.29827881 C-64.16624957 394.90748232 -73.01542823 390.51060545 -81.86081886 386.10606003 C-84.9060168 384.59162993 -87.95380656 383.08252153 -91.00187683 381.57388306 C-170.03831854 342.32974924 -170.03831854 342.32974924 -180 316 C-185.58683761 297.30521673 -182.79363096 277.30772149 -174.25 260.125 C-164.27630054 243.25808548 -147.50845486 233.22843213 -129.078125 227.89453125 C-126.02533265 227.04983314 -126.02533265 227.04983314 -123.22265625 225.95703125 C-118.90643006 224.67524287 -114.66180709 224.27120502 -110.1875 223.875 C-108.7957959 223.74871216 -108.7957959 223.74871216 -107.37597656 223.61987305 C-99.57581985 222.9600552 -91.84868658 222.71535091 -84.02539062 222.94238281 C-82.03300652 222.99906105 -80.03987441 223.02711636 -78.046875 223.0546875 C-18.58143118 224.59021419 43.2439025 258.24867927 94.21875 286.38671875 C99.73481242 289.42251377 105.3354751 292.25123275 111 295 C114.26997747 287.92315701 117.375036 280.80366771 120.30078125 273.578125 C120.69397049 272.6124913 121.08715973 271.6468576 121.49226379 270.65196228 C122.33201401 268.58895638 123.17077198 266.52554635 124.00860596 264.46176147 C125.79156677 260.06995918 127.57940404 255.68014722 129.36694336 251.29020691 C130.27653241 249.056268 131.18587456 246.82222854 132.0949707 244.58808899 C136.08645711 234.78026188 140.10141 224.98219129 144.125 215.1875 C145.42208835 212.0287334 146.71891777 208.86986057 148.015625 205.7109375 C148.49927269 204.532752 148.49927269 204.532752 148.99269104 203.33076477 C152.96118025 193.66116954 156.91804089 183.98681779 160.875 174.3125 C161.62564788 172.47753777 162.37629892 170.64257683 163.12695312 168.80761719 C166.63345207 160.23533347 170.13836828 151.66240732 173.63973999 143.08802795 C175.24792631 139.15013437 176.85686843 135.2125498 178.46588135 131.2749939 C179.22224124 129.42344353 179.97823947 127.57174538 180.73382568 125.71987915 C181.79296775 123.12406674 182.85318355 120.52869677 183.9140625 117.93359375 C184.24965179 117.11214371 184.58524109 116.29069366 184.93099976 115.4443512 C186.69361355 111.14269812 188.48049546 106.85271553 190.29980469 102.57470703 C190.67245453 101.6975856 191.04510437 100.82046417 191.42904663 99.91676331 C192.14332194 98.23998603 192.86080896 96.56457221 193.5819397 94.89073181 C195.35576434 91.08226045 195.35576434 91.08226045 196 87 C183.20966151 83.01656019 170.41783097 79.03792784 157.625 75.0625 C156.6605471 74.76277283 155.69609421 74.46304565 154.70241547 74.15423584 C121.54529769 63.85116346 88.35489822 53.66114867 55.13203049 43.57215214 C51.7900503 42.55718137 48.44828955 41.54148908 45.10652161 40.52581978 C42.83788541 39.83681872 40.56880946 39.14928194 38.29968262 38.4618988 C32.7430041 36.77506236 27.1940791 35.09001579 21.70263672 33.19921875 C18.17299318 31.84593788 18.17299318 31.84593788 15 32 Z " fill="#FF3131" transform="translate(1555,408)"/>
<path d="M0 0 C0.68354931 -0.00044186 1.36709862 -0.00088371 2.07136154 -0.00133896 C22.37867866 -0.00820168 42.44128971 0.18633759 62.5625 3.25 C63.77405762 3.42692383 64.98561523 3.60384766 66.23388672 3.78613281 C98.22515811 8.55455761 129.45314324 16.9759578 158.5625 31.25 C159.77462158 31.84167969 159.77462158 31.84167969 161.01123047 32.4453125 C172.55392947 38.14200773 183.18020224 44.65527808 193.5625 52.25 C194.22878418 52.73227051 194.89506836 53.21454102 195.58154297 53.71142578 C205.31288171 60.77287843 214.57787422 68.26276008 223.5625 76.25 C224.54476562 77.12011719 225.52703125 77.99023438 226.5390625 78.88671875 C232.48014872 84.24330458 238.20570215 89.79564055 243.875 95.4375 C244.53290527 96.09073242 245.19081055 96.74396484 245.86865234 97.41699219 C250.30174832 101.86465229 254.47558619 106.48389627 258.5625 111.25 C259.45176099 112.27088728 260.34107892 113.29172496 261.23046875 114.3125 C294.61533226 153.23562769 321.51063743 198.64274965 346.75097656 243.06494141 C348.52099673 246.17702809 350.3031197 249.28195099 352.0859375 252.38671875 C364.57305507 274.26365905 376.45282872 296.73276047 385.5625 320.25 C385.86591309 321.02311523 386.16932617 321.79623047 386.48193359 322.59277344 C401.79847139 361.85488442 407.78581996 404.2551422 407.69287109 446.24658203 C407.68752116 449.11366086 407.69284421 451.9805822 407.69921875 454.84765625 C407.70552296 469.31074795 407.56536587 483.81410164 405.25 498.125 C405.12028809 498.95322266 404.99057617 499.78144531 404.85693359 500.63476562 C403.54344859 508.77806397 401.92505621 516.84563325 400.09521484 524.88769531 C399.74466975 526.44217486 399.40357747 527.99882141 399.07275391 529.55761719 C390.56594632 569.594632 370.40157746 609.25390716 346.5625 642.25 C345.88405029 643.19649414 345.88405029 643.19649414 345.19189453 644.16210938 C332.61037522 661.68780401 318.98704723 678.21329749 304.5625 694.25 C305.92516644 698.28805866 307.7034151 700.79368118 310.625 703.875 C314.65914254 708.23084449 318.4448767 712.71882419 322.1796875 717.33203125 C324.77006106 720.50417723 327.40943437 723.63034018 330.0625 726.75 C334.11284575 731.51892178 338.10602572 736.32912995 342.05859375 741.1796875 C349.87041948 750.75861889 357.72222837 760.30229952 365.72998047 769.71826172 C369.29278404 773.91328182 372.77575575 778.16914278 376.25 782.4375 C378.82396392 785.56799666 381.43819086 788.66172461 384.0625 791.75 C388.18351634 796.59959381 392.23241354 801.50160806 396.25 806.4375 C398.82396545 809.56799851 401.43826903 812.66165634 404.0625 815.75 C408.22494676 820.65064307 412.33221281 825.59131612 416.38671875 830.58203125 C417.83632798 832.35955926 419.29731144 834.12787208 420.76953125 835.88671875 C429.80028012 846.72045426 437.62794841 858.15406365 445.01953125 870.1484375 C447.51876319 874.1990161 450.09240534 878.19784736 452.6875 882.1875 C457.30417706 889.29136284 461.87639463 896.4228382 466.4375 903.5625 C473.42540306 914.49377042 480.47345066 925.38412945 487.5625 936.25 C488.94275908 938.36715442 490.32296489 940.48434356 491.703125 942.6015625 C495.32168696 948.15184431 498.94160807 953.70123798 502.5625 959.25 C500.12009326 961.69240674 499.04008757 961.66418361 495.6652832 962.1003418 C494.63412384 962.23802979 493.60296448 962.37571777 492.54055786 962.51757812 C490.84405594 962.73124023 490.84405594 962.73124023 489.11328125 962.94921875 C487.93410126 963.10495361 486.75492126 963.26068848 485.54000854 963.42114258 C482.32280783 963.84529547 479.10477883 964.26239282 475.88634872 964.67708969 C470.47428082 965.37779278 465.06504842 966.10030426 459.65553474 966.82041359 C458.28163502 967.00324801 456.90769646 967.1857908 455.53372002 967.36804771 C442.58455774 969.08665627 429.66408013 970.9731861 416.75 972.9375 C401.96201909 975.18090401 387.16603262 977.27295089 372.33065796 979.17758179 C360.87360059 980.6501415 349.45459481 982.29131317 338.04037476 984.0640564 C327.04609061 985.76766236 316.03444032 987.2687218 305 988.6875 C291.82752977 990.38144902 278.69086702 992.2429083 265.5625 994.25 C250.571349 996.54182286 235.56280984 998.61585238 220.5222168 1000.55541992 C211.33088516 1001.74224975 202.15555182 1002.98935425 193.00097656 1004.43823242 C190.14751305 1004.88702125 187.45730285 1005.25 184.5625 1005.25 C183.00708008 1003.41186523 183.00708008 1003.41186523 181.33203125 1000.80859375 C180.70184082 999.8436499 180.07165039 998.87870605 179.42236328 997.88452148 C178.40891846 996.30199585 178.40891846 996.30199585 177.375 994.6875 C175.9330813 992.47775712 174.4892568 990.26937391 173.04296875 988.0625 C172.67337036 987.49643539 172.30377197 986.93037079 171.92297363 986.34715271 C168.12643361 980.54669437 164.16853374 974.86259064 160.1875 969.1875 C155.59383436 962.6202757 151.03867368 956.03776405 146.61938477 949.35205078 C142.33977795 942.88713128 137.98140142 936.47578119 133.625 930.0625 C133.21810944 929.4634082 132.81121887 928.86431641 132.39199829 928.24707031 C130.71654413 925.78029341 129.04092867 923.31362625 127.36500549 920.84716797 C124.47724679 916.5972263 121.59139958 912.34599333 118.70703125 908.09375 C118.31191849 907.51126999 117.91680573 906.92878998 117.50971985 906.32865906 C116.71537126 905.15761411 115.92102413 903.98656817 115.12667847 902.81552124 C108.08365287 892.43308176 101.03253651 882.05617466 93.97607422 871.68286133 C88.26258514 863.28258509 82.55769168 854.87650124 76.85449219 846.46923828 C70.57577356 837.21384779 64.2900237 827.96326969 57.99853516 818.71655273 C54.1685989 813.08648364 50.343266 807.45333547 46.5234375 801.81640625 C45.66732169 800.55338272 44.81120191 799.29036187 43.95507812 798.02734375 C41.9437231 795.05994808 39.9335661 792.09174527 37.92521667 789.12231445 C36.82937595 787.50900291 35.72302812 785.90284422 34.61645508 784.296875 C33.27255159 782.30330368 31.97541569 780.27719354 30.7331543 778.21875 C28.01413427 773.45002429 28.01413427 773.45002429 23.61328125 770.56958008 C21.49704933 770.48832456 19.69941178 770.7097105 17.625 771.125 C16.94115234 771.2178125 16.25730469 771.310625 15.55273438 771.40625 C13.88197516 771.63992262 12.22050493 771.93845725 10.5625 772.25 C10.65748779 772.83861816 10.75247559 773.42723633 10.8503418 774.03369141 C13.08408551 787.97702455 15.07528711 801.93277275 16.875 815.9375 C18.75688566 830.5705606 20.8564687 845.1624349 23.0625 859.75 C25.31669378 874.66024072 27.44118828 889.57502964 29.35449219 904.53271484 C31.20620798 918.96810057 33.33881335 933.35494832 35.51547241 947.74453735 C37.84529807 963.16618554 39.99973165 978.60186055 41.96484375 994.07421875 C42.14950699 995.5221651 42.33439499 996.97008281 42.51953125 998.41796875 C42.60635162 999.09967133 42.693172 999.7813739 42.78262329 1000.48373413 C43.44174874 1005.56132334 44.26627925 1010.59665503 45.2019043 1015.63012695 C45.60110916 1018.53051109 45.62165175 1021.32586939 45.5625 1024.25 C39.08757203 1025.76436027 32.6419361 1026.91941885 26.06201172 1027.86645508 C25.05045013 1028.0147728 24.03888855 1028.16309052 22.99667358 1028.31590271 C19.66232975 1028.80383623 16.32729385 1029.28683927 12.9921875 1029.76953125 C10.63222395 1030.11321909 8.27229001 1030.45711032 5.91238403 1030.80119324 C0.95150856 1031.52371144 -4.00971258 1032.24379527 -8.97119141 1032.9621582 C-15.2075325 1033.86528961 -21.44299906 1034.77429813 -27.67822742 1035.68507576 C-51.76742039 1039.20138077 -75.85782729 1042.64296377 -100.01332092 1045.67378235 C-110.13266063 1046.94384399 -120.22620894 1048.3236025 -130.30187988 1049.90557861 C-145.81101249 1052.33569011 -161.34890478 1054.47779849 -176.91772461 1056.48510742 C-187.98329814 1057.91338023 -199.02870557 1059.44408753 -210.06542969 1061.08251953 C-211.11891602 1061.2370459 -212.17240234 1061.39157227 -213.2578125 1061.55078125 C-214.62317139 1061.75441284 -214.62317139 1061.75441284 -216.01611328 1061.9621582 C-218.4375 1062.25 -218.4375 1062.25 -222.4375 1062.25 C-224.36254883 1060.03564453 -224.36254883 1060.03564453 -226.39453125 1056.8828125 C-226.76985992 1056.30994003 -227.1451886 1055.73706757 -227.53189087 1055.14683533 C-228.3506954 1053.89362671 -229.16310564 1052.636223 -229.96994019 1051.37527466 C-231.27058936 1049.34282622 -232.5870124 1047.32147815 -233.90844727 1045.30249023 C-235.30887463 1043.1626955 -236.70835321 1041.02235042 -238.10307312 1038.87882996 C-242.79458771 1031.6720335 -247.60412307 1024.54766843 -252.43481445 1017.4336853 C-253.88060756 1015.30424087 -255.32439519 1013.17345046 -256.76757812 1011.04223633 C-259.65600682 1006.77710923 -262.54656966 1002.51343172 -265.4375 998.25 C-266.40463465 996.82357602 -267.37175706 995.39714374 -268.33886719 993.97070312 C-268.81438522 993.26933731 -269.28990326 992.5679715 -269.77983093 991.84535217 C-271.65716472 989.07616024 -273.53416034 986.30673915 -275.41116333 983.537323 C-277.09946929 981.04702265 -278.78897694 978.55753896 -280.47891235 976.06834412 C-281.27136691 974.89802942 -282.06150292 973.72614113 -282.84921265 972.55262756 C-284.92043515 969.46836271 -287.02501856 966.41604978 -289.1862793 963.39404297 C-294.19227198 956.31100605 -297.82760195 950.58080199 -298.625 941.75 C-298.89905393 939.58698681 -299.17529918 937.4242507 -299.453125 935.26171875 C-299.59943359 934.02728027 -299.74574219 932.7928418 -299.89648438 931.52099609 C-300.51134485 926.50516269 -301.28025457 921.51404922 -302.046875 916.51953125 C-302.34688117 914.56063419 -302.64684786 912.60173107 -302.94677734 910.64282227 C-303.09943054 909.64582306 -303.25208374 908.64882385 -303.40936279 907.62161255 C-305.89728623 891.27661756 -308.19349585 874.91214042 -310.29458618 858.51327515 C-312.08911348 844.52540805 -314.13356629 830.58245082 -316.29516602 816.64672852 C-317.61567063 808.08039541 -318.79821858 799.51068862 -319.84375 790.90625 C-321.40734802 778.08402269 -323.30417489 765.31752966 -325.22393799 752.54449463 C-326.23566934 745.80692832 -327.23760679 739.06792033 -328.234375 732.328125 C-328.33253635 731.66445545 -328.43069771 731.0007859 -328.53183365 730.31700516 C-330.15134469 719.34948945 -331.66193116 708.37240929 -333.0625 697.375 C-334.9626394 682.45772816 -337.14725151 667.59205254 -339.39505005 652.72341919 C-341.51765606 638.66505335 -343.48989162 624.59780305 -345.296875 610.49560547 C-346.95996379 597.54375448 -348.85016882 584.63556628 -350.82302856 571.72756958 C-352.79474117 558.80502998 -354.57492191 545.86805991 -356.23873901 532.90255737 C-357.83236438 520.51311449 -359.61566534 508.16090903 -361.5 495.8125 C-363.38298821 483.45129428 -365.1951563 471.08650883 -366.8125 458.6875 C-366.98015869 457.42172119 -367.14781738 456.15594238 -367.32055664 454.85180664 C-368.03299483 449.27788997 -368.652094 443.87071198 -368.4375 438.25 C-371.7375 438.58 -375.0375 438.91 -378.4375 439.25 C-379.36949219 437.88230469 -380.30148437 436.51460937 -381.26171875 435.10546875 C-389.10843269 423.59246324 -396.96489037 412.0862254 -404.8359375 400.58984375 C-406.47462194 398.19576576 -408.11243448 395.80109346 -409.75 393.40625 C-415.24787719 385.36647402 -420.75263904 377.33158 -426.27392578 369.30786133 C-428.7285853 365.73942333 -431.17925287 362.16830349 -433.625 358.59375 C-434.17003174 357.79767334 -434.71506348 357.00159668 -435.27661133 356.18139648 C-436.37845053 354.56839977 -437.47728015 352.95334283 -438.57299805 351.33618164 C-441.21413 347.4468462 -443.89266277 343.60616835 -446.70703125 339.83984375 C-447.22007812 339.13859375 -447.733125 338.43734375 -448.26171875 337.71484375 C-449.21764962 336.4126702 -450.19163474 335.12345564 -451.1875 333.8515625 C-457.69603512 324.88033842 -453.87696076 312.36121319 -452.58718872 302.06878662 C-452.12013081 298.33748047 -451.66748126 294.60446397 -451.213974 290.87149048 C-450.97619119 288.91452739 -450.73779095 286.95763923 -450.49879456 285.00082397 C-449.28457609 275.0476384 -448.13104819 265.08794489 -447 255.125 C-446.89927185 254.23936371 -446.7985437 253.35372742 -446.69476318 252.44125366 C-444.8507759 236.19756783 -443.10747302 219.94340171 -441.375 203.6875 C-439.25442089 183.7920043 -437.08352935 163.90542314 -434.7623291 144.0322876 C-434.38626336 140.81113827 -434.01097667 137.58989861 -433.63574219 134.36865234 C-432.42093642 123.94122093 -431.20570934 113.51384004 -429.98657227 103.08691406 C-429.84293747 101.85798431 -429.69930267 100.62905457 -429.55131531 99.36288452 C-429.26623805 96.92487997 -428.98085167 94.48691154 -428.69514465 92.04898071 C-427.98217024 85.95593419 -427.27827829 79.86204006 -426.59033203 73.76611328 C-426.4547438 72.57059341 -426.31915558 71.37507355 -426.17945862 70.14332581 C-425.92306348 67.87839463 -425.66882548 65.61321787 -425.417099 63.34776306 C-425.30274002 62.33976151 -425.18838104 61.33175995 -425.07055664 60.29321289 C-424.97198868 59.41226456 -424.87342072 58.53131622 -424.77186584 57.62367249 C-424.46438809 55.44087931 -424.01811105 53.37454579 -423.4375 51.25 C-404.10562409 48.10599085 -384.78530417 45.06580002 -365.34765625 42.6472168 C-357.4995263 41.66467408 -349.68596373 40.5552093 -341.875 39.3125 C-330.25910838 37.46676226 -318.6119252 35.93490713 -306.94842529 34.42852783 C-295.91555588 33.00115392 -284.91721615 31.44659926 -273.9296875 29.69921875 C-264.95486356 28.28872678 -255.95293593 27.13242185 -246.9397583 25.99871826 C-238.22783737 24.90028536 -229.54677541 23.69159914 -220.875 22.3125 C-209.26144961 20.46721961 -197.61667547 18.93516336 -185.95547485 17.42953491 C-174.759682 15.981592 -163.59894048 14.39961537 -152.44848633 12.63110352 C-144.48116777 11.3788865 -136.50007526 10.32214744 -128.49072266 9.37646484 C-123.93055165 8.83285171 -119.38173177 8.24905847 -114.84008789 7.56738281 C-102.72045562 5.75450667 -90.61974914 4.39347829 -78.40844727 3.36962891 C-75.5039876 3.1253354 -72.6006543 2.8699587 -69.69726562 2.61328125 C-46.4647549 0.59526814 -23.31671329 0.00694466 0 0 Z M-94.25 33.5 C-96.01474096 33.71744906 -97.7795548 33.93430729 -99.54443359 34.15063477 C-103.25853282 34.6072792 -106.97198629 35.06877363 -110.68505859 35.53369141 C-115.57903905 36.14534746 -120.47476218 36.74163678 -125.37117004 37.33351135 C-146.9590623 39.94479441 -168.49246234 42.76122285 -189.98486328 46.07006836 C-201.11850265 47.78013533 -212.2649678 49.31713233 -223.4375 50.75 C-236.46438015 52.42182961 -249.45458432 54.26559076 -262.4375 56.25 C-276.20357713 58.35411369 -289.98044442 60.27988692 -303.79299927 62.05224609 C-316.8417968 63.73049154 -329.84611906 65.63702196 -342.8503418 67.62921143 C-361.66998052 70.50502871 -380.54394551 72.91649567 -399.4375 75.25 C-400.87125297 82.61715912 -401.94971251 89.95146845 -402.734375 97.4140625 C-402.84840668 98.46387802 -402.96243835 99.51369354 -403.07992554 100.59532166 C-403.32469005 102.84887414 -403.56788289 105.1025978 -403.80963135 107.35647583 C-405.90439759 126.86189286 -408.1375057 146.34546471 -410.5625 165.8125 C-412.39075719 180.50748802 -414.12641217 195.20394933 -415.66552734 209.93203735 C-417.11922878 223.81097288 -418.8315071 237.65323185 -420.5625 251.5 C-422.59099307 267.73275138 -424.44958833 283.91539146 -425.4375 300.25 C-413.87781537 299.55546004 -402.47898509 297.99024492 -391.01489258 296.40673828 C-388.56380345 296.06954118 -386.11202009 295.73776014 -383.66015625 295.40625 C-382.94199234 295.30517944 -382.22382843 295.20410889 -381.48390198 295.09997559 C-374.49381783 294.15727414 -367.473671 293.70764224 -360.4375 293.25 C-358.87020683 303.95763632 -357.30818431 314.66603467 -355.75 325.375 C-355.63462387 326.16774574 -355.51924774 326.96049149 -355.40037537 327.77725983 C-352.61266422 346.93782915 -349.85398243 366.09705356 -347.41012573 385.30508423 C-345.71222352 398.6181341 -343.71155658 411.87622043 -341.57910156 425.12646484 C-340.19164574 433.82667013 -339.01734981 442.52968521 -338 451.28125 C-336.60695646 463.24047283 -334.8876119 475.13573376 -333.07858276 487.03829956 C-330.51833071 503.90150544 -328.03282928 520.76787329 -325.875 537.6875 C-323.9524141 552.75213163 -321.74908014 567.76572844 -319.47921753 582.78170776 C-317.38087135 596.68151348 -315.42907678 610.58926182 -313.64550781 624.53271484 C-311.7925815 638.97753744 -309.65747534 653.37358346 -307.48049927 667.7727356 C-305.35771579 681.83238417 -303.38527293 695.90091275 -301.578125 710.00439453 C-300.02340627 722.11227804 -298.28149726 734.18292619 -296.4375 746.25 C-294.47577338 759.08749195 -292.65053057 771.93130338 -291 784.8125 C-289.03282212 800.1623018 -286.79550429 815.46263554 -284.48178101 830.76376343 C-282.45261741 844.20139333 -280.54408691 857.64581174 -278.8125 871.125 C-277.22899174 883.43663064 -275.53787028 895.72543729 -273.6875 908 C-273.5804071 908.71766541 -273.47331421 909.43533081 -273.36297607 910.17474365 C-273.06367681 912.17438787 -272.75855756 914.17315841 -272.453125 916.171875 C-272.28071289 917.30206055 -272.10830078 918.43224609 -271.93066406 919.59667969 C-271.57055179 922.214095 -271.57055179 922.214095 -270.4375 924.25 C-261.94491198 923.69058418 -253.60367114 922.60022407 -245.20025635 921.26629639 C-233.17666078 919.36131979 -221.14089588 917.64252868 -209.0625 916.125 C-200.27257569 915.02006496 -191.51745415 913.84132761 -182.77807617 912.3918457 C-175.3343156 911.18214346 -167.85640866 910.25524476 -160.375 909.3125 C-150.85224887 908.11184817 -141.35493753 906.82101627 -131.875 905.3125 C-121.0649943 903.59357943 -110.22988447 902.14891942 -99.375 900.75 C-84.67816561 898.85559646 -70.05379279 896.69707164 -55.4375 894.25 C-56.73414832 877.64605846 -59.08918159 861.23352109 -61.57629395 844.77624512 C-62.72231319 837.19274962 -63.84747447 829.60614156 -64.97265625 822.01953125 C-65.13813524 820.90533373 -65.13813524 820.90533373 -65.30695724 819.76862717 C-67.04941181 808.02683321 -68.69084761 796.27578838 -70.1875 784.5 C-71.87933403 771.20749259 -73.80023058 757.96158331 -75.82485962 744.71575928 C-77.65835368 732.70243088 -79.33421188 720.6792046 -80.875 708.625 C-83.66802415 686.77473969 -87.05077799 665.01486369 -90.4375 643.25 C-89.81222412 643.18530518 -89.18694824 643.12061035 -88.54272461 643.05395508 C-70.04704776 641.10765723 -51.7687143 638.34934739 -33.4375 635.25 C-33.19515625 635.94125977 -32.9528125 636.63251953 -32.703125 637.34472656 C-31.22045826 640.74822468 -29.2792599 643.68784798 -27.1875 646.734375 C-26.27923205 648.07698996 -25.37172336 649.42011876 -24.46484375 650.76367188 C-23.97612793 651.48578857 -23.48741211 652.20790527 -22.98388672 652.9519043 C-20.20785023 657.0773908 -17.48140839 661.23551544 -14.75 665.390625 C-13.55475482 667.20642452 -12.359441 669.02217886 -11.1640625 670.83789062 C-10.55594727 671.76190674 -9.94783203 672.68592285 -9.32128906 673.63793945 C-0.72587071 686.697049 7.87088886 699.75465305 16.5625 712.75 C25.10082661 725.5164797 33.54220786 738.34636581 41.98779297 751.17431641 C49.15037413 762.05245229 56.32179068 772.9236803 63.5625 783.75 C70.1602314 793.61493813 76.70227252 803.5157016 83.22753906 813.42871094 C85.76591884 817.28441421 88.30973424 821.13643916 90.85839844 824.98535156 C101.21748679 840.64208115 101.21748679 840.64208115 105.82299805 848.01867676 C107.43854971 850.60512315 109.07455411 853.17827711 110.71264648 855.75048828 C111.780008 857.44831572 112.81346391 859.16731164 113.84570312 860.88671875 C114.47927734 861.87800781 115.11285156 862.86929688 115.765625 863.890625 C116.28801758 864.74172852 116.81041016 865.59283203 117.34863281 866.46972656 C120.84430774 869.28076114 124.24653045 868.63313801 128.5625 868.25 C129.25095001 868.18939392 129.93940002 868.12878784 130.64871216 868.06634521 C132.71915124 867.84825214 134.77743739 867.58079456 136.83984375 867.296875 C137.59978638 867.19678635 138.359729 867.09669769 139.1427002 866.99357605 C141.59599206 866.66847838 144.04798217 866.33456011 146.5 866 C148.2168485 865.77004138 149.93372707 865.54030724 151.65063477 865.31079102 C162.14283099 863.8986693 172.61040766 862.36192681 183.06616211 860.70019531 C192.03988963 859.28893273 201.04090497 858.13277201 210.05319214 856.99972534 C218.91358876 855.88319623 227.74240859 854.64897361 236.5625 853.25 C246.7033141 851.64154374 256.86450658 850.28053588 267.05126953 849 C275.91230592 847.8833742 284.74176994 846.6490749 293.5625 845.25 C303.04373555 843.7461609 312.53796656 842.44884315 322.0625 841.25 C335.03006219 839.61688683 347.93783837 837.71082516 360.84716797 835.67285156 C366.41046229 834.80649427 371.98520616 834.0206806 377.5625 833.25 C377.05486307 829.00615525 374.4142259 826.43966932 371.6875 823.375 C370.67499082 822.20884478 369.66463652 821.04081571 368.65625 819.87109375 C368.13933594 819.27151855 367.62242187 818.67194336 367.08984375 818.05419922 C364.71005465 815.2430353 362.44617638 812.34625064 360.1875 809.4375 C356.24196889 804.37114369 352.24253059 799.35421443 348.1875 794.375 C347.64512695 793.70895752 347.10275391 793.04291504 346.54394531 792.35668945 C344.88433805 790.32041114 343.22363291 788.28503387 341.5625 786.25 C334.90208853 778.09041034 328.27389273 769.91466345 321.79638672 761.60888672 C317.54536516 756.18136623 313.15144856 750.87582246 308.75415039 745.56665039 C304.66998266 740.62465665 300.68358479 735.61774396 296.74609375 730.55859375 C293.097649 725.88900995 289.34236172 721.31359115 285.5625 716.75 C280.86956183 711.08401201 276.26461112 705.36428521 271.74609375 699.55859375 C268.0976487 694.88900956 264.34235286 690.3135992 260.5625 685.75 C255.7520001 679.94185874 251.0295584 674.07778059 246.39013672 668.13232422 C242.98734539 663.77559655 239.51129057 659.48482388 236 655.21484375 C228.95696671 646.6480773 221.94470345 638.05852369 215.125 629.3125 C211.02293302 624.0525307 206.81569265 618.88838656 202.5625 613.75 C200.22676875 610.91863562 197.89416365 608.08471445 195.5625 605.25 C195.00336914 604.57243652 194.44423828 603.89487305 193.86816406 603.19677734 C192.29734326 601.28534727 190.74051765 599.36340579 189.1875 597.4375 C188.71699219 596.86902344 188.24648438 596.30054688 187.76171875 595.71484375 C185.20773949 592.51654754 184.5625 591.50718938 184.5625 587.25 C185.9609375 585.64453125 185.9609375 585.64453125 187.9375 584.0625 C188.66710937 583.46050781 189.39671875 582.85851562 190.1484375 582.23828125 C191.34339844 581.25408203 191.34339844 581.25408203 192.5625 580.25 C194.23649886 578.75818714 195.9030054 577.25793085 197.5625 575.75 C200.44490822 573.14273075 203.34885129 570.57653534 206.3125 568.0625 C214.71761536 560.7358414 222.74034042 552.66042055 229.94140625 544.1484375 C231.8434365 541.92099967 233.8285772 539.77977029 235.8125 537.625 C250.13928211 521.70097529 263.16434476 503.97981395 273.5625 485.25 C273.99804199 484.46786133 274.43358398 483.68572266 274.88232422 482.87988281 C285.05758154 464.43834189 292.69821507 445.46551107 298.5625 425.25 C298.81362549 424.39664062 299.06475098 423.54328125 299.32348633 422.6640625 C301.23467949 415.95719574 302.54002635 409.25989451 303.625 402.375 C303.78548828 401.38886719 303.94597656 400.40273438 304.11132812 399.38671875 C304.42842508 397.42810385 304.73999882 395.46858434 305.04524231 393.50808716 C305.37606797 391.42429248 305.7212482 389.34269387 306.08488464 387.26437378 C307.39070455 379.53647312 307.85658146 372.07906568 307.828125 364.25 C307.83003845 363.0530249 307.8319519 361.8560498 307.83392334 360.62280273 C307.83527498 358.10514107 307.83165052 355.5874722 307.82324219 353.06982422 C307.81260481 349.28726875 307.82313369 345.50519648 307.8359375 341.72265625 C307.84831403 322.36933808 306.57779367 303.51724067 303.3125 284.4375 C303.09561523 283.16543701 302.87873047 281.89337402 302.65527344 280.58276367 C297.58536468 251.75892607 288.91457205 223.79437214 276.5625 197.25 C276.18544922 196.43547363 275.80839844 195.62094727 275.41992188 194.78173828 C263.25387582 168.79765769 247.49389258 144.7852249 228.5625 123.25 C227.95148437 122.53972656 227.34046875 121.82945312 226.7109375 121.09765625 C225.01357846 119.1308113 223.29366345 117.18716829 221.5625 115.25 C220.70785156 114.2909375 219.85320313 113.331875 218.97265625 112.34375 C213.79983187 106.586984 208.52182931 101.20017373 202.5625 96.25 C201.64339844 95.44304687 200.72429688 94.63609375 199.77734375 93.8046875 C186.77610154 82.4347877 172.59379739 72.73312323 157.5625 64.25 C156.58144287 63.6916748 156.58144287 63.6916748 155.58056641 63.12207031 C144.99579079 57.14855971 134.12203344 52.42084035 122.77050781 48.10058594 C120.89604272 47.37848992 119.03605941 46.61897722 117.1796875 45.8515625 C102.39376611 39.7904929 86.81801181 36.272794 71.125 33.5 C70.02091797 33.30148437 68.91683594 33.10296875 67.77929688 32.8984375 C45.16190688 29.1050556 22.53142121 28.92906385 -0.33203125 28.98925781 C-4.67131957 29.00059786 -9.01036112 28.99390287 -13.34964085 28.98238754 C-40.50189452 28.92108515 -67.28538207 30.0940038 -94.25 33.5 Z " fill="#FF3131" transform="translate(597.4375,435.75)"/>
<path d="M0 0 C1.45413889 0.3553481 2.90856462 0.7095245 4.36328125 1.0625 C20.45729892 5.17936143 35.25744755 12.32990777 48 23 C48.62519531 23.4640625 49.25039063 23.928125 49.89453125 24.40625 C67.16223053 37.67043118 76.30862312 60.33859038 81.25 80.75 C81.49508301 81.75909424 81.49508301 81.75909424 81.74511719 82.78857422 C85.98599115 101.3842188 85.76128413 121.82834318 80 140 C79.63777344 141.15757812 79.27554688 142.31515625 78.90234375 143.5078125 C74.57702854 155.9119368 66.99008283 165.59828334 58 175 C57.46117187 175.60199219 56.92234375 176.20398438 56.3671875 176.82421875 C31.87106185 203.22833408 -7.24469071 212.47112672 -41 220 C-41.95891899 220.23318687 -41.95891899 220.23318687 -42.93721008 220.47108459 C-50.10932604 222.17163028 -57.37926675 223.12945567 -64.67578125 224.12890625 C-66.09151836 224.32520554 -67.50722314 224.52173813 -68.92289734 224.7184906 C-71.87853293 225.12842374 -74.83451202 225.53575327 -77.79077148 225.94116211 C-81.54648219 226.45638523 -85.30130396 226.97778223 -89.05589008 227.5011301 C-91.97695631 227.90763551 -94.89845535 228.3109591 -97.82008934 228.71336174 C-99.20305299 228.90418381 -100.58589173 229.09591374 -101.96859169 229.28863716 C-110.30054188 230.44772886 -118.60800765 231.40486355 -127 232 C-128.56729315 221.29236378 -130.12942749 210.58398154 -131.6875 199.875 C-131.80272884 199.08313797 -131.91795769 198.29127594 -132.03667831 197.47541809 C-134.84353819 178.17929598 -137.6225625 158.88402933 -140.09475708 139.54162598 C-141.61832205 127.63154452 -143.3377903 115.76114682 -145.21411133 103.90136719 C-146.41764778 96.20895504 -147.44625424 88.5135568 -148.38671875 80.78515625 C-150.21035026 65.85609001 -152.48843531 50.99844185 -154.74682617 36.13012695 C-155.28606181 32.57287681 -155.82094486 29.01499194 -156.35546875 25.45703125 C-156.52104782 24.3769429 -156.68662689 23.29685455 -156.85722351 22.18403625 C-157.00770645 21.1807579 -157.15818939 20.17747955 -157.31323242 19.14379883 C-157.44630295 18.2679866 -157.57937347 17.39217438 -157.71647644 16.48982239 C-158.00336684 13.97043335 -158.04991388 11.53332916 -158 9 C-147.70031219 7.02682611 -137.4055273 5.50253184 -126.99194336 4.26855469 C-119.57377326 3.36993971 -112.19708671 2.2748842 -104.81762695 1.10766602 C-71.09878621 -4.22218485 -33.45711641 -9.09250768 0 0 Z " fill="#FF3131" transform="translate(609,674)"/>
<path d="M0 0 C-7.14472115 19.84233438 -25.14774832 38.35981648 -43.82641602 47.30712891 C-60.1592981 54.74488389 -80.91070825 60 -99 60 C-99.86315061 54.46948492 -100.71731626 48.93768112 -101.56347656 43.40454102 C-101.85207455 41.52558736 -102.14304982 39.64699714 -102.43652344 37.76879883 C-102.85990168 35.05644193 -103.27448326 32.34285789 -103.6875 29.62890625 C-103.81874268 28.80040665 -103.94998535 27.97190704 -104.08520508 27.11830139 C-104.90067824 21.68642838 -105.11559899 16.49336035 -105 11 C-103.48105765 10.37041826 -101.95972805 9.74659536 -100.4375 9.125 C-99.16712891 8.60292969 -99.16712891 8.60292969 -97.87109375 8.0703125 C-91.53386418 5.70786229 -85.30503061 4.44894622 -78.6328125 3.4921875 C-77.7325383 3.3615239 -76.8322641 3.23086029 -75.90470886 3.09623718 C-72.97947822 2.67879028 -70.05275483 2.27434637 -67.125 1.875 C-65.62783951 1.66990311 -65.62783951 1.66990311 -64.10043335 1.46066284 C-42.74345056 -1.41217381 -21.47211949 -2.59258958 0 0 Z " fill="#FFFDFD" transform="translate(660,809)"/>
</svg>
